<?xml version="1.0" encoding="UTF-8"?>
<!DOCTYPE svg PUBLIC "-//W3C//DTD SVG 1.1//EN" "http://www.w3.org/Graphics/SVG/1.1/DTD/svg11.dtd">
<!-- Creator: CorelDRAW X7 -->
<svg xmlns="http://www.w3.org/2000/svg" xml:space="preserve" width="20px" height="20px" version="1.1" style="shape-rendering:geometricPrecision; text-rendering:geometricPrecision; image-rendering:optimizeQuality; fill-rule:evenodd; clip-rule:evenodd"
viewBox="0 0 2000 2000"
 xmlns:xlink="http://www.w3.org/1999/xlink">
 <defs>
  <style type="text/css">
   <![CDATA[
    .fil0 {fill:black}
   ]]>
  </style>
 </defs>
 <g id="Layer_x0020_1">
  <metadata id="CorelCorpID_0Corel-Layer"/>
  <path id="Oval" class="fil0" d="M2000 1000c0,-552 -448,-1000 -1000,-1000 -552,0 -1000,448 -1000,1000 0,552 448,1000 1000,1000 552,0 1000,-448 1000,-1000zm-387 -186c20,7 39,9 58,8 15,56 22,114 22,175 0,162 -56,311 -149,430 -17,-9 -35,-14 -55,-16 -19,-2 -38,0 -56,5l-158 -228c30,-42 38,-96 19,-144l291 -242c9,5 18,9 28,12l0 0zm-291 736c-2,20 1,39 6,58 -98,52 -209,82 -328,82 -191,0 -365,-78 -490,-203l0 0c-55,-55 -100,-118 -134,-188 15,-12 28,-26 38,-43 8,-13 13,-27 17,-41l580 -54c4,7 7,13 11,20l0 0c37,57 107,82 169,65l159 228c-16,22 -26,48 -28,76l0 0zm67 141c21,14 46,24 73,26 85,7 158,-54 167,-139 2,-28 -3,-54 -14,-77 113,-137 181,-313 181,-504 0,-75 -11,-147 -30,-215 19,-17 33,-38 42,-63 27,-80 -16,-167 -96,-194 -25,-9 -51,-11 -76,-6 -22,-30 -47,-58 -73,-85l-1 0c-144,-144 -343,-233 -562,-233 -219,0 -418,89 -562,233l0 0 -1 0c-144,144 -233,343 -233,563 0,16 1,32 2,48 -22,13 -41,31 -54,54 -43,73 -19,167 52,209 23,14 49,21 73,21 40,86 94,164 161,230l-1 0c144,144 343,233 563,233 141,0 274,-37 389,-101zm-1028 -645c-17,-10 -35,-16 -54,-19 0,-10 0,-20 0,-30 0,-192 77,-365 203,-491l0 0c125,-125 298,-203 490,-203 192,0 365,78 490,203l0 0c20,20 39,42 56,64 -12,14 -22,31 -28,50 -12,35 -11,72 2,104l-292 242c-48,-28 -110,-29 -160,3 -34,22 -56,54 -66,91l-581 53c-13,-27 -33,-50 -60,-67l0 0z"/>
 </g>
</svg>
